# xmcd
#
# Track frame offsets:
#	150
#	19060
#	39030
#	54460
#	65790
#	81565
#	94152
#	111627
#	126577
#	142180
#	159185
#	178075
#
# Disc length: 2535 seconds
#
# Revision: 1
# Processed by: cddbd v1.5.1PL0 Copyright (c) Steve Scherf et al.
# Submitted via: CDex 1.50Beta5
#
DISCID=af09e50c
DTITLE=丸山ももたろう - 誰想彼
DYEAR=1996
DGENRE=
TTITLE0=夢を見た朝
TTITLE1=山の向こうに
TTITLE2=北風
TTITLE3=いつの日か
TTITLE4=はじめてのおつかい
TTITLE5=風の吹く丘
TTITLE6=遠い空
TTITLE7=琥珀色の午後
TTITLE8=夕陽
TTITLE9=親愛なる…
TTITLE10=誰想彼
TTITLE11=さよなら
EXTD=
EXTT0=
EXTT1=
EXTT2=
EXTT3=
EXTT4=
EXTT5=
EXTT6=
EXTT7=
EXTT8=
EXTT9=
EXTT10=
EXTT11=
PLAYORDER=
